<svg width="18" height="18" viewBox="0 0 18 18" fill="none" xmlns="http://www.w3.org/2000/svg">
<path fill-rule="evenodd" clip-rule="evenodd" d="M1.5 9.21075C1.5 5.47383 4.6575 2.10634 9.015 2.10634C13.275 2.10634 16.5 5.40989 16.5 9.18943C16.5 13.5729 12.72 16.2938 9 16.2938C7.77 16.2938 6.405 15.9812 5.31 15.3703C4.9275 15.15 4.605 14.9866 4.1925 15.1145L2.6775 15.5408C2.295 15.6544 1.95 15.3703 2.0625 14.9866L2.565 13.3952C2.6475 13.175 2.6325 12.9406 2.5125 12.7558C1.8675 11.6333 1.5 10.4043 1.5 9.21075ZM8.02491 9.21075C8.02491 9.71516 8.45241 10.1201 8.98491 10.1272C9.51741 10.1272 9.94491 9.71516 9.94491 9.21785C9.94491 8.71344 9.51741 8.30849 8.98491 8.30849C8.45991 8.30138 8.02491 8.71344 8.02491 9.21075ZM11.4825 9.21785C11.4825 9.71516 11.91 10.1272 12.4425 10.1272C12.975 10.1272 13.4025 9.71516 13.4025 9.21785C13.4025 8.71344 12.975 8.30849 12.4425 8.30849C11.91 8.30849 11.4825 8.71344 11.4825 9.21785ZM5.52758 10.1272C5.00258 10.1272 4.56758 9.71516 4.56758 9.21786C4.56758 8.71344 4.99508 8.30849 5.52758 8.30849C6.06008 8.30849 6.48758 8.71344 6.48758 9.21786C6.48758 9.71516 6.06008 10.1201 5.52758 10.1272Z" fill="white"/>
</svg>
